<svg width="74" height="270" viewBox="0 0 74 270" fill="none" xmlns="http://www.w3.org/2000/svg">
<path d="M53.2872 30.1448L53.7187 30.2766L51.4791 37.3006L49.3491 44.3557L47.4014 51.3936L45.6487 58.5539L44.031 65.7362L42.6175 72.8989L41.3806 80.1632L40.2867 87.4148L39.3856 94.7092L38.6817 101.947L38.1164 109.261L37.7379 116.574L37.5014 123.887V131.21L37.6433 138.545L37.1148 138.597L35.4579 128.186L33.5079 117.831L31.4217 107.508L29.1025 97.2123L26.549 87.0416L23.797 76.8766L22.6155 72.8064L21.2516 68.801L19.6743 64.8683L17.9239 60.9715L16.0247 57.1787L13.9131 53.3928L14.3712 53.2149L16.4447 56.8875L18.3947 60.7704L20.1463 64.6383L21.7155 68.6265L23.0863 72.6492L24.269 76.7229L27.0151 86.9006L29.5928 97.1176L31.9132 107.455L34.0398 117.741L35.939 128.108L37.0525 134.913L36.9821 131.223L37.0294 123.886L37.2152 116.584L37.6444 109.173L38.1637 101.883L38.9206 94.6179L39.8183 87.3397L40.9168 80.0731L42.1456 72.8422L43.5637 65.6114L45.171 58.4279L46.9306 51.256L48.861 44.224L50.9599 37.1492L53.2872 30.0015V30.1448Z" fill="black"/>
<path fill-rule="evenodd" clip-rule="evenodd" d="M39.2264 0L41.286 0.041603L43.3548 0.351314L45.3637 0.806636L47.3045 1.47922L49.1333 2.3263L50.8849 3.36984L53.2618 4.90915L55.4864 6.62412L57.6476 8.4951L59.5849 10.4377V10.4123L61.4346 12.6103L63.1365 14.806L64.6619 17.1323L66.0338 19.5257L67.22 22.0392L68.1742 24.4741V24.4314L69.0315 27.2315L70.3019 34.7616L71.3981 42.2906L72.2981 49.8508L73.0077 57.4376L73.5269 65.0232L73.8581 72.6215L74 80.2071L73.9527 87.8401L73.7162 95.4384L73.2915 103.024L72.6765 110.611L71.8723 118.137L70.3954 129.994L69.7342 134.244L68.8815 138.45L67.7796 142.657L66.5553 146.755L65.1373 150.827L63.5138 154.871L61.7149 158.786L61.1438 160.333L61.1865 160.285L60.2922 162.141L59.3126 163.64L58.2038 165.112L56.9265 166.462L55.4991 167.679L54.1411 168.655L54.1745 168.645L52.4484 169.66L52.5476 169.64L50.6633 170.543L48.8887 171.133L47.0783 171.614L45.2714 171.868L45.3637 171.884L43.2568 171.99L41.3137 172.013L39.4364 171.847L39.5287 171.887L39.3094 171.845L39.5817 178.592L40.3848 193.81L41.3887 209.076L42.5702 224.316L43.9906 239.535L45.5552 254.682L47.3587 269.947L46.8868 270L45.0775 254.77L43.4702 239.599L42.0971 224.356L40.8591 209.151L39.8656 193.86L39.0614 178.595L38.7844 171.746L37.3675 171.481L35.5225 170.936L33.8252 170.272L33.8552 170.296L33.7006 170.223L33.6613 170.301V170.211L31.9444 169.352L31.9017 169.42V169.339L30.3579 168.368L30.4121 168.434L28.7552 167.152L28.7228 167.189V167.124L27.3348 165.839L27.3059 165.869V165.775L24.6521 162.621L22.1943 159.366L19.814 156.015L17.5847 152.595L15.5332 148.985L13.6593 145.467L11.947 141.741L10.3893 137.996L10.3339 138.009L8.57774 132.247L6.91273 126.425L5.44618 120.599L4.17118 114.719L3.08655 108.836L2.12655 102.884L1.32462 96.9546L0.758081 90.9904L0.330002 84.9545L0.0473079 78.9417L0 72.9878L0.0946159 66.9774L0.378464 60.9634L0.803081 54.9529L1.41808 48.9852L2.23386 43.0221L2.85694 39.2825L3.65079 35.6237L4.64426 31.9985L5.82811 28.3212L7.11235 24.7272V24.7561L8.53504 21.3782L10.0316 18.9155L11.7554 16.4944L13.6108 14.1485L13.6374 14.1704L15.5966 12.0348L17.7566 10.0044L20.0378 8.09641L22.4713 6.38028L24.9901 4.74621V4.67571L25.0224 4.72772L27.6013 3.30282L30.3567 2.03508L33.1871 0.946468L35.1475 0.412563L37.0733 0.110941L36.9475 0.0924511L39.2264 0ZM37.2417 0.589376L35.2733 0.904865L33.3129 1.40641L30.5125 2.49387L27.8598 3.75929L25.2613 5.15415L22.7459 6.73969L20.3609 8.50666L18.1039 10.3476L15.967 12.3931L13.9835 14.4975L12.1881 16.7556L10.4666 19.1593L8.9862 21.548L9.01043 21.5584L7.53581 25.0577L6.24696 28.6125L5.11041 32.1649L4.1181 35.7763L3.31386 39.457L2.70578 43.1238L1.90155 49.0407L1.2727 55.0257L0.850389 61.0143L0.566541 66.9785L0.471926 72.989L0.566541 78.9405L0.803081 84.9522L1.22654 90.8794L1.84155 96.8656L2.61001 102.784L3.55617 108.746L4.69272 114.635L5.96657 120.496L7.39273 126.306L9.05312 132.105L10.8635 137.867L10.8243 137.876L12.3693 141.547L14.1289 145.199L16.0201 148.81L18.0786 152.359L20.2524 155.789L22.5624 159.112L25.0721 162.358L27.7005 165.487L29.0517 166.784L30.5621 167.906L32.1729 168.939L33.8609 169.797L35.6979 170.49L37.4356 171.003L38.7637 171.228L38.4464 163.329L38.0679 148.027H38.541L38.9667 163.326L39.2875 171.317L41.3079 171.516H43.2325L45.1214 171.431L46.9502 171.114L48.6476 170.689L50.5341 170.059L52.1403 169.311L53.7395 168.349L55.1853 167.321L56.5757 166.092L57.7953 164.791L58.8811 163.396L59.8388 161.843L60.6534 160.244L61.2407 158.593L63.0499 154.63L64.6757 150.631L66.11 146.512L67.3123 142.482L68.3692 138.309L69.2669 134.106L69.9234 129.941L70.3965 125.634L71.3888 118.096L72.2046 110.536L72.8185 102.973L73.2431 95.4246L73.4323 87.7927L73.4796 80.2083L73.3388 72.6111L73.0065 65.0128L72.4885 57.441L71.7685 49.9271L70.8661 42.3276L69.83 34.8298L68.5561 27.3621L67.738 24.7503L66.7469 22.2183L65.5665 19.7845L64.2407 17.4039L62.7199 15.088L61.0676 12.8888L59.2618 10.796L57.2288 8.81406L55.1438 6.96619L52.986 5.35407L50.6403 3.80552L48.9499 2.77469L47.2122 2.00503L45.1825 1.27351L43.2048 0.807792L41.271 0.54315L39.2333 0.459944L37.2417 0.589376Z" fill="black"/>
</svg>
