<svg width="272" height="119" viewBox="0 0 272 119" fill="none" xmlns="http://www.w3.org/2000/svg">
<path d="M165.842 21.1406C166.803 21.1406 167.59 21.6878 168.204 22.7822C168.818 23.8766 169.125 25.4915 169.125 27.627C169.125 30.8301 168.137 34.7406 166.162 39.3584C164.214 43.9495 161.344 48.514 157.554 53.0518C153.763 57.5628 149.986 61.6335 146.223 65.2637C144.692 66.7614 143.25 68.0698 141.898 69.1914V106.083C141.898 109.9 141.965 112.222 142.099 113.05C142.232 113.877 142.646 114.491 143.34 114.892C144.061 115.292 145.382 115.492 147.304 115.492V117.334C143.433 117.414 139.99 117.761 136.974 118.375C136.653 117.12 136.493 115.145 136.493 112.449C134.518 114.424 132.476 115.906 130.367 116.894C128.285 117.881 126.123 118.375 123.881 118.375C119.637 118.375 115.966 116.667 112.87 113.25C109.8 109.833 108.266 105.696 108.266 100.838C108.266 95.4993 109.84 91.1885 112.99 87.9053C116.14 84.5954 119.89 82.9404 124.241 82.9404C126.457 82.9404 128.552 83.3408 130.527 84.1416C132.503 84.9424 134.371 86.1436 136.133 87.7451V74.9326C136.133 74.1665 136.063 73.6134 135.953 73.207C133.481 74.4229 131.033 75.0332 128.605 75.0332C125.215 75.0332 123.521 74.0589 123.521 72.1104C123.521 71.3096 123.881 70.6689 124.602 70.1885C125.322 69.7347 126.083 69.5078 126.884 69.5078C127.498 69.5078 128.459 69.6813 129.767 70.0283C131.475 70.5088 132.876 70.749 133.971 70.749C135.572 70.749 137.147 70.2952 138.695 69.3877C140.217 68.5068 142.099 66.9587 144.341 64.7432C146.61 62.5544 148.198 60.6058 149.105 58.8975C150.013 57.2158 150.814 54.2396 151.508 49.9688C152.229 45.6979 152.589 41.1068 152.589 36.1953C152.589 32.4583 152.242 29.5755 151.548 27.5469C150.854 25.5182 150 24.5039 148.985 24.5039C147.037 24.5039 145.836 26.9997 145.382 31.9912H143.7C144.021 28.2008 144.848 25.4515 146.183 23.7432C147.544 22.0081 148.999 21.1406 150.547 21.1406C152.522 21.1406 154.097 22.3551 155.271 24.7842C156.473 27.1865 157.073 30.8568 157.073 35.7949C157.073 42.2279 156.339 48.1136 154.871 53.4521C157.487 50.596 160.036 46.9658 162.519 42.5615C165.028 38.1572 166.282 34.4069 166.282 31.3105C166.282 29.8424 165.855 28.3877 165.001 26.9463C164.147 25.5316 163.72 24.4639 163.72 23.7432C163.72 23.0492 163.92 22.4486 164.32 21.9414C164.747 21.4076 165.255 21.1406 165.842 21.1406ZM184.66 106.083C184.66 109.9 184.727 112.222 184.86 113.05C184.994 113.877 185.408 114.491 186.102 114.892C186.822 115.292 188.144 115.492 190.065 115.492V117.334C186.195 117.414 182.752 117.761 179.735 118.375C179.415 117.12 179.255 115.145 179.255 112.449C177.28 114.424 175.238 115.906 173.129 116.894C171.047 117.881 168.885 118.375 166.643 118.375C162.398 118.375 158.728 116.667 155.632 113.25C152.562 109.833 151.027 105.696 151.027 100.838C151.027 95.4993 152.602 91.1885 155.752 87.9053C158.902 84.5954 162.652 82.9404 167.003 82.9404C169.218 82.9404 171.314 83.3408 173.289 84.1416C175.264 84.9424 177.133 86.1436 178.895 87.7451V74.9326C178.895 71.4359 178.841 69.2337 178.734 68.3262C178.654 67.4186 178.281 66.7246 177.613 66.2441C176.946 65.7637 175.758 65.5234 174.05 65.5234H173.209V63.6816C176.439 63.6016 179.976 63.041 183.819 62H184.66V106.083ZM265.859 106.083C265.859 109.9 265.926 112.222 266.06 113.05C266.193 113.877 266.607 114.491 267.301 114.892C268.021 115.292 269.343 115.492 271.265 115.492V117.334C267.394 117.414 263.951 117.761 260.935 118.375C260.614 117.12 260.454 115.145 260.454 112.449C258.479 114.424 256.437 115.906 254.328 116.894C252.246 117.881 250.084 118.375 247.842 118.375C243.598 118.375 239.927 116.667 236.831 113.25C233.761 109.833 232.227 105.696 232.227 100.838C232.227 95.4993 233.801 91.1885 236.951 87.9053C240.101 84.5954 243.851 82.9404 248.202 82.9404C250.418 82.9404 252.513 83.3408 254.488 84.1416C256.464 84.9424 258.332 86.1436 260.094 87.7451V74.9326C260.094 71.4359 260.04 69.2337 259.934 68.3262C259.854 67.4186 259.48 66.7246 258.812 66.2441C258.145 65.7637 256.957 65.5234 255.249 65.5234H254.408V63.6816C257.638 63.6016 261.175 63.041 265.019 62H265.859V106.083ZM84.6826 82.9404C88.0726 82.9404 90.7018 83.4743 92.5703 84.542C94.4388 85.6097 95.6667 86.8242 96.2539 88.1855C96.8678 89.5469 97.1748 91.6289 97.1748 94.4316V107.685C97.1748 110.781 97.335 112.77 97.6553 113.65C97.9756 114.531 98.6696 114.972 99.7373 114.972C101.499 114.972 102.593 113.664 103.021 111.048H104.502C104.262 115.612 102.02 117.895 97.7754 117.895C95.9603 117.895 94.5189 117.414 93.4512 116.453C92.4102 115.492 91.7295 114.064 91.4092 112.169C88.7399 114.064 86.2975 115.492 84.082 116.453C81.8932 117.414 79.9313 117.895 78.1963 117.895C75.9808 117.895 74.0723 117.254 72.4707 115.973C70.8691 114.691 70.0684 112.996 70.0684 110.888C70.0684 108.138 71.403 105.736 74.0723 103.681C76.7682 101.625 80.4785 99.6234 85.2031 97.6748L91.4092 95.1523V93.5508C91.4092 91.2819 91.2624 89.6403 90.9688 88.626C90.6751 87.6117 89.9144 86.7041 88.6865 85.9033C87.4587 85.1025 85.8438 84.7021 83.8418 84.7021C79.8379 84.7021 77.609 86.0368 77.1553 88.7061C76.7282 91.4287 75.6071 92.79 73.792 92.79C72.1637 92.79 71.3496 92.016 71.3496 90.4678C71.3496 88.9463 72.4307 87.318 74.5928 85.583C76.7549 83.8213 80.1182 82.9404 84.6826 82.9404ZM208.644 82.9404C212.034 82.9404 214.663 83.4743 216.531 84.542C218.4 85.6097 219.628 86.8242 220.215 88.1855C220.829 89.5469 221.136 91.6289 221.136 94.4316V107.685C221.136 110.781 221.296 112.77 221.616 113.65C221.937 114.531 222.631 114.972 223.698 114.972C225.46 114.972 226.554 113.664 226.981 111.048H228.463C228.223 115.612 225.98 117.895 221.736 117.895C219.921 117.895 218.48 117.414 217.412 116.453C216.371 115.492 215.69 114.064 215.37 112.169C212.701 114.064 210.258 115.492 208.043 116.453C205.854 117.414 203.892 117.895 202.157 117.895C199.942 117.895 198.033 117.254 196.432 115.973C194.83 114.691 194.029 112.996 194.029 110.888C194.029 108.138 195.364 105.736 198.033 103.681C200.729 101.625 204.439 99.6234 209.164 97.6748L215.37 95.1523V93.5508C215.37 91.2819 215.223 89.6403 214.93 88.626C214.636 87.6117 213.875 86.7041 212.647 85.9033C211.42 85.1025 209.805 84.7021 207.803 84.7021C203.799 84.7021 201.57 86.0368 201.116 88.7061C200.689 91.4287 199.568 92.79 197.753 92.79C196.125 92.79 195.311 92.016 195.311 90.4678C195.311 88.9463 196.392 87.318 198.554 85.583C200.716 83.8213 204.079 82.9404 208.644 82.9404ZM28.0674 64.6025H27.0664C24.4238 64.6025 22.6888 64.8294 21.8613 65.2832C21.0339 65.7103 20.4733 66.5244 20.1797 67.7256C19.9128 68.9268 19.7793 71.7829 19.7793 76.2939V87.0645H48.127V76.2939C48.127 71.9697 48.0068 69.1803 47.7666 67.9258C47.5264 66.6712 46.9925 65.8037 46.165 65.3232C45.3643 64.8428 43.5892 64.6025 40.8398 64.6025H39.3984V62.7607H64.1025V64.6025H63.3018C60.6325 64.6025 58.8841 64.8294 58.0566 65.2832C57.2292 65.7103 56.6686 66.5244 56.375 67.7256C56.1081 68.9268 55.9746 71.7829 55.9746 76.2939V102.92C55.9746 107.191 56.068 109.993 56.2549 111.328C56.4684 112.636 57.0156 113.61 57.8965 114.251C58.7773 114.892 60.4323 115.212 62.8613 115.212H64.1025V117.054H39.3984V115.212H41.2803C43.5758 115.212 45.1641 114.918 46.0449 114.331C46.9525 113.744 47.5264 112.836 47.7666 111.608C48.0068 110.354 48.127 107.458 48.127 102.92V89.8271H19.7793V102.92C19.7793 107.191 19.8861 109.993 20.0996 111.328C20.3132 112.636 20.847 113.61 21.7012 114.251C22.582 114.892 24.237 115.212 26.666 115.212H28.0674V117.054H3.64355V115.212H5.04492C7.36719 115.212 8.96875 114.918 9.84961 114.331C10.7572 113.744 11.3311 112.836 11.5713 111.608C11.8382 110.354 11.9717 107.458 11.9717 102.92V76.2939C11.9717 71.9697 11.8382 69.1803 11.5713 67.9258C11.3311 66.6712 10.7972 65.8037 9.96973 65.3232C9.16895 64.8428 7.39388 64.6025 4.64453 64.6025H3.64355V62.7607H28.0674V64.6025ZM125.482 85.5029C122.466 85.5029 119.944 86.6641 117.915 88.9863C115.913 91.3086 114.912 95.099 114.912 100.357C114.912 105.696 115.94 109.633 117.995 112.169C120.077 114.705 122.64 115.973 125.683 115.973C127.711 115.973 129.593 115.492 131.328 114.531C133.063 113.57 134.665 112.129 136.133 110.207V90.0674C134.371 88.5459 132.596 87.4115 130.808 86.6641C129.046 85.89 127.271 85.5029 125.482 85.5029ZM168.244 85.5029C165.228 85.5029 162.705 86.6641 160.677 88.9863C158.675 91.3086 157.674 95.099 157.674 100.357C157.674 105.696 158.701 109.633 160.757 112.169C162.839 114.705 165.401 115.973 168.444 115.973C170.473 115.973 172.355 115.492 174.09 114.531C175.825 113.57 177.426 112.129 178.895 110.207V90.0674C177.133 88.5459 175.358 87.4115 173.569 86.6641C171.808 85.89 170.033 85.5029 168.244 85.5029ZM249.443 85.5029C246.427 85.5029 243.905 86.6641 241.876 88.9863C239.874 91.3086 238.873 95.099 238.873 100.357C238.873 105.696 239.901 109.633 241.956 112.169C244.038 114.705 246.601 115.973 249.644 115.973C251.672 115.973 253.554 115.492 255.289 114.531C257.024 113.57 258.626 112.129 260.094 110.207V90.0674C258.332 88.5459 256.557 87.4115 254.769 86.6641C253.007 85.89 251.232 85.5029 249.443 85.5029ZM87.0449 98.7959C80.1582 101.599 76.7148 105.122 76.7148 109.366C76.7148 111.048 77.1553 112.409 78.0361 113.45C78.917 114.465 80.0648 114.972 81.4795 114.972C82.734 114.972 84.1888 114.558 85.8438 113.73C87.4987 112.903 89.3538 111.662 91.4092 110.007V97.0342L87.0449 98.7959ZM211.006 98.7959C204.119 101.599 200.676 105.122 200.676 109.366C200.676 111.048 201.116 112.409 201.997 113.45C202.878 114.465 204.026 114.972 205.44 114.972C206.695 114.972 208.15 114.558 209.805 113.73C211.46 112.903 213.315 111.662 215.37 110.007V97.0342L211.006 98.7959ZM64.2627 21.1406C65.3037 21.1406 66.1846 21.4743 66.9053 22.1416C67.6527 22.7822 68.0264 23.7565 68.0264 25.0645C68.0264 25.9987 67.5592 27.8672 66.625 30.6699L61.5801 45.4844C60.6191 48.3672 60.1387 50.2624 60.1387 51.1699C60.1387 51.9974 60.3255 52.6247 60.6992 53.0518C61.0729 53.4788 61.6201 53.6924 62.3408 53.6924C64.6898 53.6924 67.4792 51.1966 70.709 46.2051C73.9388 41.2135 77.0352 33.793 79.998 23.9434L80.6787 21.6611H85.4834L78.4766 44.6436C77.3555 48.3805 76.7949 50.6361 76.7949 51.4102C76.7949 52.0775 76.9284 52.5846 77.1953 52.9316C77.4622 53.252 77.8626 53.4121 78.3965 53.4121C80.4251 53.4121 82.347 51.21 84.1621 46.8057H85.8438C83.5749 53.0518 80.5052 56.1748 76.6348 56.1748C75.3268 56.1748 74.3392 55.8145 73.6719 55.0938C73.0312 54.373 72.7109 53.292 72.7109 51.8506C72.7109 49.8219 73.4316 46.5788 74.873 42.1211C70.2018 51.4902 65.584 56.1748 61.0195 56.1748C59.3379 56.1748 58.0166 55.6543 57.0557 54.6133C56.0947 53.5723 55.6143 52.2777 55.6143 50.7295C55.6143 49.208 56.2148 46.6855 57.416 43.1621L62.3408 28.7881C63.0615 26.6527 63.4219 25.3714 63.4219 24.9443C63.4219 24.2503 63.0749 23.9033 62.3809 23.9033C60.6992 23.9033 58.8574 26.1589 56.8555 30.6699H54.9336C56.0013 27.8672 57.4027 25.585 59.1377 23.8232C60.8727 22.0348 62.5811 21.1406 64.2627 21.1406ZM103.741 22.2617H109.747L109.187 24.0234H103.181L97.8955 41.5205C96.1338 47.2594 95.2529 50.596 95.2529 51.5303C95.2529 52.1709 95.3864 52.6647 95.6533 53.0117C95.9469 53.332 96.3607 53.4922 96.8945 53.4922C97.8555 53.4922 99.11 52.5846 100.658 50.7695C102.206 48.9544 103.594 46.6722 104.822 43.9229H106.584C104.956 47.9001 103.087 50.943 100.979 53.0518C98.8965 55.1338 96.988 56.1748 95.2529 56.1748C93.8916 56.1748 92.7972 55.6943 91.9697 54.7334C91.1689 53.7725 90.7686 52.5579 90.7686 51.0898C90.7686 49.8353 91.596 46.4987 93.251 41.0801L98.416 24.0234H92.8906L93.4512 22.2617H98.9365L102.62 10.1299H107.425L103.741 22.2617ZM119.797 29.8691C124.602 24.0501 128.979 21.1406 132.93 21.1406C134.718 21.1406 136.053 21.5143 136.934 22.2617C137.814 23.0091 138.255 24.1436 138.255 25.665C138.255 26.8662 137.467 29.7223 135.893 34.2334L132.369 44.2832C131.008 48.207 130.327 50.4759 130.327 51.0898C130.327 51.7572 130.461 52.2643 130.728 52.6113C130.994 52.9583 131.395 53.1318 131.929 53.1318C132.89 53.1318 133.971 52.5579 135.172 51.4102C136.373 50.2624 137.401 48.8343 138.255 47.126H140.217C138.855 49.8486 137.241 52.0374 135.372 53.6924C133.504 55.3473 131.729 56.1748 130.047 56.1748C128.819 56.1748 127.765 55.721 126.884 54.8135C126.003 53.9059 125.562 52.7048 125.562 51.21C125.562 49.6084 126.31 46.7656 127.805 42.6816L131.208 33.4326C132.783 29.1885 133.57 26.5192 133.57 25.4248C133.57 24.7575 133.383 24.2637 133.01 23.9434C132.663 23.5964 132.116 23.4229 131.368 23.4229C130.167 23.4229 128.752 23.9167 127.124 24.9043C125.496 25.8652 123.801 27.4935 122.039 29.7891C120.277 32.0579 118.983 34.1934 118.155 36.1953C117.354 38.1973 116.3 41.387 114.992 45.7646L111.949 55.6543H107.185L121.238 9.40918C122.039 6.79329 122.439 5.27181 122.439 4.84473C122.439 4.23079 122.253 3.79036 121.879 3.52344C121.532 3.25651 120.651 3.12305 119.236 3.12305H117.955L118.436 1.44141C122.68 1.33464 125.829 0.854167 127.885 0H128.886L119.797 29.8691ZM30.3896 0.760742C34.3402 0.760742 37.2897 0.867513 39.2383 1.08105C41.2135 1.2679 43.2288 1.92188 45.2842 3.04297C47.3395 4.13737 48.9144 5.57878 50.0088 7.36719C51.1299 9.1556 51.6904 11.1576 51.6904 13.373C51.6904 17.5371 49.9821 21.0072 46.5654 23.7832C43.1755 26.5592 37.7702 28.054 30.3496 28.2676C34.2467 29.6823 36.9561 31.6175 38.4775 34.0732C39.999 36.529 40.8532 39.9456 41.04 44.3232C41.1735 47.6598 41.5205 49.902 42.0811 51.0498C42.6416 52.1976 43.7093 52.7715 45.2842 52.7715C46.6455 52.7715 48.3939 52.0374 50.5293 50.5693L51.4102 52.4512C48.4473 54.6934 45.4176 55.8145 42.3213 55.8145C39.1982 55.8145 36.8626 54.8802 35.3145 53.0117C33.7663 51.1432 32.9922 48.1536 32.9922 44.043L33.0322 40.7598C33.0322 37.0495 32.7119 34.4202 32.0713 32.8721C31.4307 31.3239 30.5365 30.2829 29.3887 29.749C28.2409 29.2152 26.3991 28.9482 23.8633 28.9482H21.8613L17.0566 44.6436C16.2559 47.2594 15.8555 48.8343 15.8555 49.3682C15.8555 50.7829 16.4294 51.7839 17.5771 52.3711C18.7516 52.9316 20.0329 53.2119 21.4209 53.2119H22.542L21.9814 55.0537H0L0.560547 53.2119H1.44141C3.09635 53.2119 4.49772 52.9183 5.64551 52.3311C6.79329 51.7171 7.56738 51.0231 7.96777 50.249C8.39486 49.4482 9.00879 47.7132 9.80957 45.0439L20.2998 10.4902C21.1006 7.82096 21.501 6.13932 21.501 5.44531C21.501 4.51107 21.1006 3.80371 20.2998 3.32324C19.499 2.84277 17.9375 2.60254 15.6152 2.60254L16.1758 0.760742H30.3896ZM32.0312 2.44238C31.3906 2.44238 30.6966 2.46908 29.9492 2.52246L22.4219 27.2266H24.0234C30.8568 27.2266 35.9684 25.9186 39.3584 23.3027C42.7484 20.6868 44.4434 17.0299 44.4434 12.332C44.4434 9.02214 43.4023 6.55306 41.3203 4.9248C39.265 3.26986 36.1686 2.44238 32.0312 2.44238Z" fill="black"/>
</svg>
